<svg width="80" height="80" viewBox="0 0 80 80" fill="none" xmlns="http://www.w3.org/2000/svg">
<path fill-rule="evenodd" clip-rule="evenodd" d="M28.5492 37.6992H37.5443V4.69858H28.5492V37.6992ZM23.6348 42.4034H42.4556V0H23.6348V42.4034Z" fill="#072833"/>
<path fill-rule="evenodd" clip-rule="evenodd" d="M-6.10352e-05 51.7057H79.9988V47.0208H-6.10352e-05V51.7057Z" fill="#072833"/>
<path fill-rule="evenodd" clip-rule="evenodd" d="M4.89625 70.0128H28.0198V61.0692H4.89625V70.0128ZM-6.10352e-05 80.0002H4.89625V74.6921H32.9174V56.3855H-6.10352e-05V80.0002Z" fill="#072833"/>
<path fill-rule="evenodd" clip-rule="evenodd" d="M61.1787 4.69858V42.4028H66.0899V14.1044L75.0832 4.70231V42.4028H79.9994V0H73.0963L66.0899 7.30352V0H59.1899L47.2667 12.3251V42.4028H52.1842V14.1063L61.1787 4.69858Z" fill="#072833"/>
<path fill-rule="evenodd" clip-rule="evenodd" d="M42.6055 70.0128H56.2488V61.0692H42.6055V70.0128ZM61.3572 70.0128H75.1043V61.0692H61.3572V70.0128ZM37.7067 74.6921H56.2494V80.0002H61.3572V74.6921H80V56.3855H37.7067V74.6921Z" fill="#072833"/>
<path fill-rule="evenodd" clip-rule="evenodd" d="M4.91665 14.1063L13.908 4.70231V37.6998H4.91665V14.1063ZM13.908 42.4028H18.823V0H11.9224L0.000427246 12.3251V42.4028H13.908Z" fill="#072833"/>
</svg>
