<svg width="70" height="70" viewBox="0 0 70 70" fill="none" xmlns="http://www.w3.org/2000/svg">
<path fill-rule="evenodd" clip-rule="evenodd" d="M35 70C54.33 70 70 54.33 70 35C70 15.67 54.33 0 35 0C15.67 0 0 15.67 0 35C0 54.33 15.67 70 35 70ZM26.6464 34.6464L29.8284 31.4645C30.0237 31.2692 30.3403 31.2692 30.5355 31.4645C30.7308 31.6597 30.7308 31.9763 30.5355 32.1716L28.2071 34.5H43V35.5H28.2071L30.5355 37.8284C30.7308 38.0237 30.7308 38.3403 30.5355 38.5355C30.3403 38.7308 30.0237 38.7308 29.8284 38.5355L26.6464 35.3536C26.4512 35.1583 26.4512 34.8417 26.6464 34.6464Z" fill="white"/>
</svg>
